<mxfile host="app.diagrams.net" agent="Mozilla/5.0 (Windows NT 10.0; Win64; x64) AppleWebKit/537.36 (KHTML, like Gecko) Chrome/131.0.0.0 Safari/537.36 Edg/131.0.0.0" version="25.0.3">
  <diagram name="第 1 页" id="Rp78LxxQGP6v0MH8XGbg">
    <mxGraphModel dx="1865" dy="964" grid="1" gridSize="10" guides="1" tooltips="1" connect="1" arrows="1" fold="1" page="1" pageScale="1" pageWidth="600" pageHeight="700" math="0" shadow="0">
      <root>
        <mxCell id="0" />
        <mxCell id="1" parent="0" />
        <mxCell id="jBRwDOJGaFHg1b3nOOuP-1" value="" style="rounded=1;whiteSpace=wrap;html=1;fillColor=#D6CADB;strokeColor=none;dashed=1;strokeWidth=2;arcSize=6;" vertex="1" parent="1">
          <mxGeometry x="20" y="30" width="460" height="600" as="geometry" />
        </mxCell>
        <mxCell id="jBRwDOJGaFHg1b3nOOuP-20" value="" style="endArrow=classic;html=1;rounded=0;strokeWidth=3;" edge="1" parent="1">
          <mxGeometry width="50" height="50" relative="1" as="geometry">
            <mxPoint x="70" y="57.40000000000001" as="sourcePoint" />
            <mxPoint x="70" y="602.6" as="targetPoint" />
          </mxGeometry>
        </mxCell>
        <mxCell id="jBRwDOJGaFHg1b3nOOuP-21" style="edgeStyle=orthogonalEdgeStyle;rounded=0;orthogonalLoop=1;jettySize=auto;html=1;entryX=0.5;entryY=0;entryDx=0;entryDy=0;strokeWidth=2;" edge="1" parent="1" source="jBRwDOJGaFHg1b3nOOuP-2" target="jBRwDOJGaFHg1b3nOOuP-3">
          <mxGeometry relative="1" as="geometry" />
        </mxCell>
        <mxCell id="jBRwDOJGaFHg1b3nOOuP-2" value="&lt;p style=&quot;margin-top: 0pt; margin-bottom: 0pt; margin-left: 0in; direction: ltr; unicode-bidi: embed; word-break: normal;&quot;&gt;&lt;span style=&quot;font-size: 18pt; font-family: 等线;&quot;&gt;conv(1x1)&lt;/span&gt;&lt;/p&gt;" style="rounded=0;whiteSpace=wrap;html=1;strokeColor=none;fillColor=#DCEAF7;" vertex="1" parent="1">
          <mxGeometry x="294" y="90" width="120" height="60" as="geometry" />
        </mxCell>
        <mxCell id="jBRwDOJGaFHg1b3nOOuP-22" style="edgeStyle=orthogonalEdgeStyle;rounded=0;orthogonalLoop=1;jettySize=auto;html=1;strokeWidth=2;" edge="1" parent="1" source="jBRwDOJGaFHg1b3nOOuP-3">
          <mxGeometry relative="1" as="geometry">
            <mxPoint x="246" y="220" as="targetPoint" />
          </mxGeometry>
        </mxCell>
        <mxCell id="jBRwDOJGaFHg1b3nOOuP-3" value="&lt;span style=&quot;font-size: 18pt; font-family: 等线;&quot;&gt;Softmax&lt;/span&gt;" style="ellipse;whiteSpace=wrap;html=1;strokeColor=none;fillColor=#CADCC9;" vertex="1" parent="1">
          <mxGeometry x="294" y="180" width="120" height="80" as="geometry" />
        </mxCell>
        <mxCell id="jBRwDOJGaFHg1b3nOOuP-24" style="edgeStyle=orthogonalEdgeStyle;rounded=0;orthogonalLoop=1;jettySize=auto;html=1;entryX=0.5;entryY=0;entryDx=0;entryDy=0;strokeWidth=2;" edge="1" parent="1" source="jBRwDOJGaFHg1b3nOOuP-4" target="jBRwDOJGaFHg1b3nOOuP-16">
          <mxGeometry relative="1" as="geometry" />
        </mxCell>
        <mxCell id="jBRwDOJGaFHg1b3nOOuP-4" value="" style="ellipse;whiteSpace=wrap;html=1;aspect=fixed;strokeWidth=7;fillColor=none;strokeColor=#666666;movable=1;resizable=1;rotatable=1;deletable=1;editable=1;locked=0;connectable=1;" vertex="1" parent="1">
          <mxGeometry x="212" y="205" width="30" height="30" as="geometry" />
        </mxCell>
        <mxCell id="jBRwDOJGaFHg1b3nOOuP-7" value="" style="endArrow=none;html=1;rounded=0;entryX=0.846;entryY=0.181;entryDx=0;entryDy=0;entryPerimeter=0;exitX=0;exitY=1;exitDx=0;exitDy=0;strokeWidth=6;strokeColor=#666666;movable=0;resizable=0;rotatable=0;deletable=0;editable=0;locked=1;connectable=0;" edge="1" parent="1" source="jBRwDOJGaFHg1b3nOOuP-4" target="jBRwDOJGaFHg1b3nOOuP-4">
          <mxGeometry width="50" height="50" relative="1" as="geometry">
            <mxPoint x="380" y="340" as="sourcePoint" />
            <mxPoint x="430" y="290" as="targetPoint" />
          </mxGeometry>
        </mxCell>
        <mxCell id="jBRwDOJGaFHg1b3nOOuP-8" value="" style="endArrow=none;html=1;rounded=0;entryX=1;entryY=1;entryDx=0;entryDy=0;exitX=0;exitY=0;exitDx=0;exitDy=0;strokeWidth=6;strokeColor=#666666;movable=0;resizable=0;rotatable=0;deletable=0;editable=0;locked=1;connectable=0;" edge="1" parent="1" source="jBRwDOJGaFHg1b3nOOuP-4" target="jBRwDOJGaFHg1b3nOOuP-4">
          <mxGeometry width="50" height="50" relative="1" as="geometry">
            <mxPoint x="419.68" y="323.95" as="sourcePoint" />
            <mxPoint x="454.68" y="289.95" as="targetPoint" />
          </mxGeometry>
        </mxCell>
        <mxCell id="jBRwDOJGaFHg1b3nOOuP-11" value="" style="endArrow=none;html=1;rounded=0;entryX=1;entryY=0.5;entryDx=0;entryDy=0;exitX=0;exitY=0.5;exitDx=0;exitDy=0;strokeWidth=6;strokeColor=#666666;" edge="1" parent="1" source="jBRwDOJGaFHg1b3nOOuP-10" target="jBRwDOJGaFHg1b3nOOuP-10">
          <mxGeometry width="50" height="50" relative="1" as="geometry">
            <mxPoint x="20" y="550" as="sourcePoint" />
            <mxPoint x="70" y="500" as="targetPoint" />
          </mxGeometry>
        </mxCell>
        <mxCell id="jBRwDOJGaFHg1b3nOOuP-12" value="" style="endArrow=none;html=1;rounded=0;entryX=0.5;entryY=1;entryDx=0;entryDy=0;exitX=0.5;exitY=0;exitDx=0;exitDy=0;strokeWidth=6;strokeColor=#666666;" edge="1" parent="1" source="jBRwDOJGaFHg1b3nOOuP-10" target="jBRwDOJGaFHg1b3nOOuP-10">
          <mxGeometry width="50" height="50" relative="1" as="geometry">
            <mxPoint x="20" y="550" as="sourcePoint" />
            <mxPoint x="70" y="500" as="targetPoint" />
          </mxGeometry>
        </mxCell>
        <mxCell id="jBRwDOJGaFHg1b3nOOuP-13" value="" style="ellipse;whiteSpace=wrap;html=1;aspect=fixed;strokeWidth=7;fillColor=none;strokeColor=#666666;movable=1;resizable=1;rotatable=1;deletable=1;editable=1;locked=0;connectable=1;" vertex="1" parent="1">
          <mxGeometry x="113" y="475" width="30" height="30" as="geometry" />
        </mxCell>
        <mxCell id="jBRwDOJGaFHg1b3nOOuP-14" value="" style="ellipse;whiteSpace=wrap;html=1;aspect=fixed;fillColor=#666666;strokeColor=none;" vertex="1" parent="1">
          <mxGeometry x="125" y="487" width="6" height="6" as="geometry" />
        </mxCell>
        <mxCell id="jBRwDOJGaFHg1b3nOOuP-25" style="edgeStyle=orthogonalEdgeStyle;rounded=0;orthogonalLoop=1;jettySize=auto;html=1;exitX=0.5;exitY=1;exitDx=0;exitDy=0;entryX=0.5;entryY=0;entryDx=0;entryDy=0;strokeWidth=2;" edge="1" parent="1" source="jBRwDOJGaFHg1b3nOOuP-16" target="jBRwDOJGaFHg1b3nOOuP-17">
          <mxGeometry relative="1" as="geometry" />
        </mxCell>
        <mxCell id="jBRwDOJGaFHg1b3nOOuP-16" value="&lt;p style=&quot;margin-top: 0pt; margin-bottom: 0pt; margin-left: 0in; direction: ltr; unicode-bidi: embed; word-break: normal;&quot;&gt;&lt;span style=&quot;font-size: 18pt; font-family: 等线;&quot;&gt;conv(1x1)&lt;/span&gt;&lt;/p&gt;" style="rounded=0;whiteSpace=wrap;html=1;strokeColor=none;fillColor=#DCEAF7;" vertex="1" parent="1">
          <mxGeometry x="167" y="280" width="120" height="60" as="geometry" />
        </mxCell>
        <mxCell id="jBRwDOJGaFHg1b3nOOuP-26" style="edgeStyle=orthogonalEdgeStyle;rounded=0;orthogonalLoop=1;jettySize=auto;html=1;exitX=0.5;exitY=1;exitDx=0;exitDy=0;entryX=0.5;entryY=0;entryDx=0;entryDy=0;strokeWidth=2;" edge="1" parent="1" source="jBRwDOJGaFHg1b3nOOuP-17" target="jBRwDOJGaFHg1b3nOOuP-18">
          <mxGeometry relative="1" as="geometry" />
        </mxCell>
        <mxCell id="jBRwDOJGaFHg1b3nOOuP-17" value="&lt;p style=&quot;margin-top: 0pt; margin-bottom: 0pt; margin-left: 0in; direction: ltr; unicode-bidi: embed; word-break: normal;&quot;&gt;&lt;span style=&quot;font-size: 18pt; font-family: 等线;&quot;&gt;ReLU&lt;/span&gt;&lt;/p&gt;" style="rounded=0;whiteSpace=wrap;html=1;strokeColor=none;fillColor=#DCEAF7;" vertex="1" parent="1">
          <mxGeometry x="167" y="370" width="120" height="60" as="geometry" />
        </mxCell>
        <mxCell id="jBRwDOJGaFHg1b3nOOuP-27" style="edgeStyle=orthogonalEdgeStyle;rounded=0;orthogonalLoop=1;jettySize=auto;html=1;strokeWidth=2;" edge="1" parent="1" source="jBRwDOJGaFHg1b3nOOuP-18" target="jBRwDOJGaFHg1b3nOOuP-13">
          <mxGeometry relative="1" as="geometry" />
        </mxCell>
        <mxCell id="jBRwDOJGaFHg1b3nOOuP-18" value="&lt;p style=&quot;margin-top: 0pt; margin-bottom: 0pt; margin-left: 0in; direction: ltr; unicode-bidi: embed; word-break: normal;&quot;&gt;&lt;span style=&quot;font-size: 18pt; font-family: 等线;&quot;&gt;conv(1x1)&lt;/span&gt;&lt;/p&gt;" style="rounded=0;whiteSpace=wrap;html=1;strokeColor=none;fillColor=#DCEAF7;" vertex="1" parent="1">
          <mxGeometry x="167" y="460" width="120" height="60" as="geometry" />
        </mxCell>
        <mxCell id="jBRwDOJGaFHg1b3nOOuP-19" value="&lt;p style=&quot;margin-top: 0pt; margin-bottom: 0pt; margin-left: 0in; direction: ltr; unicode-bidi: embed; word-break: normal;&quot;&gt;&lt;span style=&quot;font-size:20.0pt;&lt;br/&gt;font-family:等线;mso-ascii-font-family:等线;mso-fareast-font-family:等线;mso-bidi-font-family:&lt;br/&gt;+mn-cs;mso-ascii-theme-font:minor-latin;mso-fareast-theme-font:minor-fareast;&lt;br/&gt;mso-bidi-theme-font:minor-bidi;color:white;mso-color-index:0;mso-font-kerning:&lt;br/&gt;12.0pt;language:en-US;mso-style-textfill-type:solid;mso-style-textfill-fill-themecolor:&lt;br/&gt;background1;mso-style-textfill-fill-color:white;mso-style-textfill-fill-alpha:&lt;br/&gt;100.0%&quot;&gt;Attention Module&lt;/span&gt;&lt;/p&gt;" style="rounded=1;whiteSpace=wrap;html=1;strokeColor=none;fillColor=#9F82AA;" vertex="1" parent="1">
          <mxGeometry x="330" y="550" width="150" height="80" as="geometry" />
        </mxCell>
        <mxCell id="jBRwDOJGaFHg1b3nOOuP-28" value="" style="endArrow=classic;html=1;rounded=0;entryX=0;entryY=0.5;entryDx=0;entryDy=0;strokeWidth=3;" edge="1" parent="1" target="jBRwDOJGaFHg1b3nOOuP-2">
          <mxGeometry width="50" height="50" relative="1" as="geometry">
            <mxPoint x="70" y="120" as="sourcePoint" />
            <mxPoint x="320" y="220" as="targetPoint" />
          </mxGeometry>
        </mxCell>
        <mxCell id="jBRwDOJGaFHg1b3nOOuP-29" value="" style="endArrow=classic;html=1;rounded=0;strokeWidth=2;" edge="1" parent="1" target="jBRwDOJGaFHg1b3nOOuP-4">
          <mxGeometry width="50" height="50" relative="1" as="geometry">
            <mxPoint x="227" y="120" as="sourcePoint" />
            <mxPoint x="227" y="190" as="targetPoint" />
          </mxGeometry>
        </mxCell>
        <mxCell id="jBRwDOJGaFHg1b3nOOuP-30" value="" style="endArrow=classic;html=1;rounded=0;entryX=0;entryY=0.5;entryDx=0;entryDy=0;strokeWidth=2;" edge="1" parent="1" target="jBRwDOJGaFHg1b3nOOuP-13">
          <mxGeometry width="50" height="50" relative="1" as="geometry">
            <mxPoint x="70" y="490" as="sourcePoint" />
            <mxPoint x="190" y="490" as="targetPoint" />
          </mxGeometry>
        </mxCell>
        <mxCell id="jBRwDOJGaFHg1b3nOOuP-10" value="" style="ellipse;whiteSpace=wrap;html=1;aspect=fixed;strokeWidth=7;fillColor=none;strokeColor=#666666;movable=1;resizable=1;rotatable=1;deletable=1;editable=1;locked=0;connectable=1;" vertex="1" parent="1">
          <mxGeometry x="55" y="530" width="30" height="30" as="geometry" />
        </mxCell>
        <mxCell id="jBRwDOJGaFHg1b3nOOuP-32" style="edgeStyle=orthogonalEdgeStyle;rounded=0;orthogonalLoop=1;jettySize=auto;html=1;exitX=0.5;exitY=1;exitDx=0;exitDy=0;entryX=1.016;entryY=0.592;entryDx=0;entryDy=0;entryPerimeter=0;strokeWidth=2;" edge="1" parent="1" source="jBRwDOJGaFHg1b3nOOuP-13" target="jBRwDOJGaFHg1b3nOOuP-10">
          <mxGeometry relative="1" as="geometry" />
        </mxCell>
        <mxCell id="jBRwDOJGaFHg1b3nOOuP-33" value="&lt;p style=&quot;language:zh-CN;margin-top:0pt;margin-bottom:0pt;margin-left:0in;&lt;br/&gt;text-align:left;direction:ltr;unicode-bidi:embed;mso-line-break-override:none;&lt;br/&gt;word-break:normal;punctuation-wrap:hanging&quot;&gt;&lt;span style=&quot;font-size:16.0pt;&lt;br/&gt;font-family:&amp;quot;Times New Roman&amp;quot;;mso-ascii-font-family:&amp;quot;Times New Roman&amp;quot;;&lt;br/&gt;mso-fareast-font-family:等线;mso-bidi-font-family:&amp;quot;Times New Roman&amp;quot;;mso-fareast-theme-font:&lt;br/&gt;minor-fareast;color:#747474;mso-color-index:2;mso-font-kerning:12.0pt;&lt;br/&gt;language:en-US;mso-style-textfill-type:solid;mso-style-textfill-fill-themecolor:&lt;br/&gt;background2;mso-style-textfill-fill-color:#747474;mso-style-textfill-fill-alpha:&lt;br/&gt;100.0%;mso-style-textfill-fill-colortransforms:lumm=50000&quot;&gt;CxHxW&lt;/span&gt;&lt;/p&gt;" style="rounded=0;whiteSpace=wrap;html=1;strokeColor=none;fillColor=none;" vertex="1" parent="1">
          <mxGeometry x="55" y="60" width="120" height="60" as="geometry" />
        </mxCell>
        <mxCell id="jBRwDOJGaFHg1b3nOOuP-34" value="&#xa;&#xa;&#xa;&lt;p style=&quot;language:zh-CN;margin-top:0pt;margin-bottom:0pt;margin-left:0in;&#xa;text-align:left;direction:ltr;unicode-bidi:embed;mso-line-break-override:none;&#xa;word-break:normal;punctuation-wrap:hanging&quot;&gt;&lt;span style=&quot;font-size:12.0pt;&#xa;font-family:&amp;quot;Times New Roman&amp;quot;;mso-ascii-font-family:&amp;quot;Times New Roman&amp;quot;;&#xa;mso-fareast-font-family:等线;mso-bidi-font-family:&amp;quot;Times New Roman&amp;quot;;mso-fareast-theme-font:&#xa;minor-fareast;color:#747474;mso-color-index:2;mso-font-kerning:12.0pt;&#xa;language:en-US;mso-style-textfill-type:solid;mso-style-textfill-fill-themecolor:&#xa;background2;mso-style-textfill-fill-color:#747474;mso-style-textfill-fill-alpha:&#xa;100.0%;mso-style-textfill-fill-colortransforms:lumm=50000&quot;&gt;1xHxW&lt;/span&gt;&lt;/p&gt;&#xa;&#xa;&#xa;&#xa;&#xa;&#xa;" style="rounded=0;whiteSpace=wrap;html=1;fillColor=none;strokeColor=none;" vertex="1" parent="1">
          <mxGeometry x="260" y="151" width="120" height="60" as="geometry" />
        </mxCell>
        <mxCell id="jBRwDOJGaFHg1b3nOOuP-35" value="&#xa;&#xa;&#xa;&lt;p style=&quot;language:zh-CN;margin-top:0pt;margin-bottom:0pt;margin-left:0in;&#xa;text-align:left;direction:ltr;unicode-bidi:embed;mso-line-break-override:none;&#xa;word-break:normal;punctuation-wrap:hanging&quot;&gt;&lt;span style=&quot;font-size:12.0pt;&#xa;font-family:&amp;quot;Times New Roman&amp;quot;;mso-ascii-font-family:&amp;quot;Times New Roman&amp;quot;;&#xa;mso-fareast-font-family:等线;mso-bidi-font-family:&amp;quot;Times New Roman&amp;quot;;mso-fareast-theme-font:&#xa;minor-fareast;color:#747474;mso-color-index:2;mso-font-kerning:12.0pt;&#xa;language:en-US;mso-style-textfill-type:solid;mso-style-textfill-fill-themecolor:&#xa;background2;mso-style-textfill-fill-color:#747474;mso-style-textfill-fill-alpha:&#xa;100.0%;mso-style-textfill-fill-colortransforms:lumm=50000&quot;&gt;HWx1&lt;/span&gt;&lt;/p&gt;&#xa;&#xa;&#xa;&#xa;&#xa;&#xa;" style="rounded=0;whiteSpace=wrap;html=1;strokeColor=none;fillColor=none;" vertex="1" parent="1">
          <mxGeometry x="227" y="181" width="120" height="60" as="geometry" />
        </mxCell>
        <mxCell id="jBRwDOJGaFHg1b3nOOuP-36" value="&#xa;&#xa;&#xa;&lt;p style=&quot;language:zh-CN;margin-top:0pt;margin-bottom:0pt;margin-left:0in;&#xa;text-align:left;direction:ltr;unicode-bidi:embed;mso-line-break-override:none;&#xa;word-break:normal;punctuation-wrap:hanging&quot;&gt;&lt;span style=&quot;font-size:12.0pt;&#xa;font-family:&amp;quot;Times New Roman&amp;quot;;mso-ascii-font-family:&amp;quot;Times New Roman&amp;quot;;&#xa;mso-fareast-font-family:等线;mso-bidi-font-family:&amp;quot;Times New Roman&amp;quot;;mso-fareast-theme-font:&#xa;minor-fareast;color:#747474;mso-color-index:2;mso-font-kerning:12.0pt;&#xa;language:en-US;mso-style-textfill-type:solid;mso-style-textfill-fill-themecolor:&#xa;background2;mso-style-textfill-fill-color:#747474;mso-style-textfill-fill-alpha:&#xa;100.0%;mso-style-textfill-fill-colortransforms:lumm=50000&quot;&gt;CxHW&lt;/span&gt;&lt;/p&gt;&#xa;&#xa;&#xa;&#xa;&#xa;&#xa;" style="rounded=0;whiteSpace=wrap;html=1;fillColor=none;strokeColor=none;" vertex="1" parent="1">
          <mxGeometry x="138" y="179" width="120" height="60" as="geometry" />
        </mxCell>
        <mxCell id="jBRwDOJGaFHg1b3nOOuP-37" value="&#xa;&#xa;&#xa;&lt;p style=&quot;language:zh-CN;margin-top:0pt;margin-bottom:0pt;margin-left:0in;&#xa;text-align:left;direction:ltr;unicode-bidi:embed;mso-line-break-override:none;&#xa;word-break:normal;punctuation-wrap:hanging&quot;&gt;&lt;span style=&quot;font-size:12.0pt;&#xa;font-family:&amp;quot;Times New Roman&amp;quot;;mso-ascii-font-family:&amp;quot;Times New Roman&amp;quot;;&#xa;mso-fareast-font-family:等线;mso-bidi-font-family:&amp;quot;Times New Roman&amp;quot;;mso-fareast-theme-font:&#xa;minor-fareast;color:#747474;mso-color-index:2;mso-font-kerning:12.0pt;&#xa;language:en-US;mso-style-textfill-type:solid;mso-style-textfill-fill-themecolor:&#xa;background2;mso-style-textfill-fill-color:#747474;mso-style-textfill-fill-alpha:&#xa;100.0%;mso-style-textfill-fill-colortransforms:lumm=50000&quot;&gt;Cx1x1&lt;/span&gt;&lt;/p&gt;&#xa;&#xa;&#xa;&#xa;&#xa;&#xa;" style="rounded=0;whiteSpace=wrap;html=1;strokeColor=none;fillColor=none;" vertex="1" parent="1">
          <mxGeometry x="130" y="263" width="120" height="60" as="geometry" />
        </mxCell>
        <mxCell id="jBRwDOJGaFHg1b3nOOuP-38" value="&#xa;&#xa;&#xa;&lt;p style=&quot;language:zh-CN;margin-top:0pt;margin-bottom:0pt;margin-left:0in;&#xa;text-align:left;direction:ltr;unicode-bidi:embed;mso-line-break-override:none;&#xa;word-break:normal;punctuation-wrap:hanging&quot;&gt;&lt;span style=&quot;font-size:12.0pt;&#xa;font-family:&amp;quot;Times New Roman&amp;quot;;mso-ascii-font-family:&amp;quot;Times New Roman&amp;quot;;&#xa;mso-fareast-font-family:等线;mso-bidi-font-family:&amp;quot;Times New Roman&amp;quot;;mso-fareast-theme-font:&#xa;minor-fareast;color:#747474;mso-color-index:2;mso-font-kerning:12.0pt;&#xa;language:en-US;mso-style-textfill-type:solid;mso-style-textfill-fill-themecolor:&#xa;background2;mso-style-textfill-fill-color:#747474;mso-style-textfill-fill-alpha:&#xa;100.0%;mso-style-textfill-fill-colortransforms:lumm=50000&quot;&gt;C/16x1x1&lt;/span&gt;&lt;/p&gt;&#xa;&#xa;&#xa;&#xa;&#xa;&#xa;" style="rounded=0;whiteSpace=wrap;html=1;strokeColor=none;fillColor=none;" vertex="1" parent="1">
          <mxGeometry x="128" y="353" width="120" height="60" as="geometry" />
        </mxCell>
        <mxCell id="jBRwDOJGaFHg1b3nOOuP-39" value="&#xa;&#xa;&#xa;&lt;p style=&quot;language:zh-CN;margin-top:0pt;margin-bottom:0pt;margin-left:0in;&#xa;text-align:left;direction:ltr;unicode-bidi:embed;mso-line-break-override:none;&#xa;word-break:normal;punctuation-wrap:hanging&quot;&gt;&lt;span style=&quot;font-size:12.0pt;&#xa;font-family:&amp;quot;Times New Roman&amp;quot;;mso-ascii-font-family:&amp;quot;Times New Roman&amp;quot;;&#xa;mso-fareast-font-family:等线;mso-bidi-font-family:&amp;quot;Times New Roman&amp;quot;;mso-fareast-theme-font:&#xa;minor-fareast;color:#747474;mso-color-index:2;mso-font-kerning:12.0pt;&#xa;language:en-US;mso-style-textfill-type:solid;mso-style-textfill-fill-themecolor:&#xa;background2;mso-style-textfill-fill-color:#747474;mso-style-textfill-fill-alpha:&#xa;100.0%;mso-style-textfill-fill-colortransforms:lumm=50000&quot;&gt;Cx1x1&lt;/span&gt;&lt;/p&gt;&#xa;&#xa;&#xa;&#xa;&#xa;&#xa;" style="rounded=0;whiteSpace=wrap;html=1;fillColor=none;strokeColor=none;" vertex="1" parent="1">
          <mxGeometry x="132" y="444" width="120" height="60" as="geometry" />
        </mxCell>
        <mxCell id="jBRwDOJGaFHg1b3nOOuP-41" value="&#xa;&#xa;&#xa;&lt;p style=&quot;language:zh-CN;margin-top:0pt;margin-bottom:0pt;margin-left:0in;&#xa;text-align:left;direction:ltr;unicode-bidi:embed;mso-line-break-override:none;&#xa;word-break:normal;punctuation-wrap:hanging&quot;&gt;&lt;span style=&quot;font-size:16.0pt;&#xa;font-family:&amp;quot;Times New Roman&amp;quot;;mso-ascii-font-family:&amp;quot;Times New Roman&amp;quot;;&#xa;mso-fareast-font-family:等线;mso-bidi-font-family:&amp;quot;Times New Roman&amp;quot;;mso-fareast-theme-font:&#xa;minor-fareast;color:#747474;mso-color-index:2;mso-font-kerning:12.0pt;&#xa;language:en-US;mso-style-textfill-type:solid;mso-style-textfill-fill-themecolor:&#xa;background2;mso-style-textfill-fill-color:#747474;mso-style-textfill-fill-alpha:&#xa;100.0%;mso-style-textfill-fill-colortransforms:lumm=50000&quot;&gt;CxHxW&lt;/span&gt;&lt;/p&gt;&#xa;&#xa;&#xa;&#xa;&#xa;&#xa;" style="rounded=0;whiteSpace=wrap;html=1;fillColor=none;strokeColor=none;" vertex="1" parent="1">
          <mxGeometry x="58" y="581" width="120" height="60" as="geometry" />
        </mxCell>
      </root>
    </mxGraphModel>
  </diagram>
</mxfile>
